Coordinates
version=1
nRows=29
nColumns=22
inDegrees=yes

Units are S.I. units (second, meters, Newtons, ...)
If the header above contains a line with 'inDegrees', this indicates whether rotational values are in degrees (yes) or radians (no).

endheader
time	pelvis_tilt	pelvis_list	pelvis_rotation	pelvis_tx	pelvis_ty	pelvis_tz	hip_flexion_r	hip_adduction_r	hip_rotation_r	knee_angle_r	ankle_angle_r	subtalar_angle_r	hip_flexion_l	hip_adduction_l	hip_rotation_l	knee_angle_l	ankle_angle_l	subtalar_angle_l	lumbar_extension	lumbar_bending	lumbar_rotation
      0.01000000	      1.14991317	     -0.88079069	      3.67662920	     -1.11919970	      1.07693604	     -0.56700588	     -5.90742152	      1.88279596	     -4.65088615	     -8.30049303	     12.60767713	     -3.90523293	     -4.69926961	     -0.18383622	     -2.61563661	    -10.40227358	     14.54186585	     -0.85194099	     -1.95972051	     -1.57972246	     -5.37638585
      0.02000000	      1.16411387	     -0.88923359	      3.63738102	     -1.11921865	      1.07694800	     -0.56692147	     -5.90780328	      1.89000018	     -4.61438459	     -8.32039397	     12.61037351	     -3.90344334	     -4.70615375	     -0.19171509	     -2.63283400	    -10.42136780	     14.55636721	     -0.85273587	     -1.93986845	     -1.58546746	     -5.43340306
      0.03000000	      1.17871338	     -0.91471584	      3.57457038	     -1.11925280	      1.07695347	     -0.56679727	     -5.90771328	      1.91373220	     -4.54607055	     -8.33515897	     12.62511147	     -3.89528797	     -4.69732538	     -0.21868390	     -2.70163256	    -10.47200675	     14.58693604	     -0.85391948	     -1.91761676	     -1.57332864	     -5.46871865
      0.04000000	      1.19642648	     -0.92651861	      3.51980533	     -1.11928571	      1.07697380	     -0.56667962	     -5.90108465	      1.92294727	     -4.50831868	     -8.37107437	     12.62122051	     -3.89171031	     -4.70918873	     -0.22917918	     -2.72988148	    -10.48938719	     14.59669439	     -0.85455029	     -1.89853029	     -1.58016555	     -5.52781203
      0.05000000	      1.21089367	     -0.95638729	      3.43511011	     -1.11933217	      1.07697882	     -0.56651901	     -5.89499975	      1.94903940	     -4.42145863	     -8.39244245	     12.63539548	     -3.87874957	     -4.69878256	     -0.26001627	     -2.82842902	    -10.54500053	     14.62887347	     -0.85791437	     -1.87760421	     -1.56546970	     -5.54477359
      0.06000000	      1.22246483	     -0.97786678	      3.35343113	     -1.11938119	      1.07698786	     -0.56636344	     -5.88100367	      1.96550847	     -4.34716304	     -8.42432862	     12.63588067	     -3.86807973	     -4.69750609	     -0.27978540	     -2.90026543	    -10.57718608	     14.64949387	     -0.85811300	     -1.85634215	     -1.56096910	     -5.56893415
      0.07000000	      1.23823696	     -0.98920650	      3.29264270	     -1.11943180	      1.07700627	     -0.56624240	     -5.87215429	      1.97259378	     -4.30838247	     -8.45823493	     12.63375130	     -3.86494772	     -4.70759540	     -0.28855243	     -2.93076951	    -10.59389255	     14.65810141	     -0.85947317	     -1.84403797	     -1.56717300	     -5.62067345
      0.08000000	      1.25027146	     -1.01672292	      3.19051862	     -1.11949225	      1.07700943	     -0.56606638	     -5.86084350	      1.99320930	     -4.20477145	     -8.48248855	     12.65153941	     -3.85395150	     -4.69991714	     -0.31535569	     -3.04926071	    -10.64184469	     14.68571413	     -0.86425291	     -1.82898209	     -1.55207596	     -5.60508050
      0.09000000	      1.25800027	     -1.03426182	      3.09707031	     -1.11957285	      1.07701673	     -0.56590853	     -5.84004583	      2.00317668	     -4.12018548	     -8.51498873	     12.65174713	     -3.84667889	     -4.70174968	     -0.32852506	     -3.12604021	    -10.65994529	     14.69877554	     -0.86230505	     -1.81672068	     -1.54780623	     -5.60487463
      0.10000000	      1.26888639	     -1.05008889	      3.00753561	     -1.11966045	      1.07702630	     -0.56576653	     -5.82372339	      2.01132097	     -4.04033650	     -8.54595008	     12.66101292	     -3.84244546	     -4.70432934	     -0.34055746	     -3.20496894	    -10.68221211	     14.71050915	     -0.86091299	     -1.81043128	     -1.54270442	     -5.60445205
      0.11000000	      1.27953750	     -1.06476071	      2.91517418	     -1.11975702	      1.07703813	     -0.56563114	     -5.80621282	      2.01755953	     -3.95486097	     -8.57792573	     12.66595080	     -3.83997532	     -4.70981789	     -0.35039955	     -3.28329904	    -10.69833799	     14.71987370	     -0.85889276	     -1.80647567	     -1.53670688	     -5.59559287
      0.12000000	      1.29073968	     -1.07794732	      2.82539468	     -1.11986647	      1.07705288	     -0.56551148	     -5.78982990	      2.02222813	     -3.87157751	     -8.60792031	     12.67053602	     -3.83965749	     -4.71571300	     -0.35806411	     -3.35864913	    -10.71302807	     14.72716343	     -0.85685409	     -1.80685894	     -1.52987062	     -5.58563699
      0.13000000	      1.30200966	     -1.09018018	      2.73966812	     -1.11997986	      1.07706974	     -0.56540813	     -5.77477820	      2.02595492	     -3.78905749	     -8.63591877	     12.67207164	     -3.84091541	     -4.72225127	     -0.36453973	     -3.43112382	    -10.72591476	     14.73362269	     -0.85496226	     -1.80850407	     -1.52245582	     -5.57229696
      0.14000000	      1.31306269	     -1.10158015	      2.65942238	     -1.12009588	      1.07708837	     -0.56532423	     -5.76189034	      2.02905978	     -3.70890423	     -8.66027842	     12.67152183	     -3.84318891	     -4.72749182	     -0.36995221	     -3.50080295	    -10.73961043	     14.73937870	     -0.85347598	     -1.81091940	     -1.51395875	     -5.55673671
      0.15000000	      1.32311083	     -1.10694872	      2.61169316	     -1.12023055	      1.07710746	     -0.56529968	     -5.74930944	      2.02743318	     -3.67432212	     -8.68380395	     12.66387019	     -3.84364732	     -4.73116936	     -0.36899480	     -3.51983430	    -10.74629987	     14.74199788	     -0.85349604	     -1.81882468	     -1.51047899	     -5.58115667
      0.16000000	      1.33122776	     -1.12008109	      2.52995304	     -1.12034727	      1.07712293	     -0.56523453	     -5.74135585	      2.03196806	     -3.58005664	     -8.69314469	     12.66390315	     -3.84453643	     -4.72868405	     -0.37590883	     -3.61186373	    -10.76858054	     14.75027380	     -0.85581078	     -1.81948851	     -1.49663969	     -5.53693174
      0.17000000	      1.33827877	     -1.12362553	      2.49412332	     -1.12049554	      1.07714176	     -0.56525106	     -5.73088079	      2.02830256	     -3.55135093	     -8.70731796	     12.65506906	     -3.84450535	     -4.72574339	     -0.37238984	     -3.62497834	    -10.77834962	     14.75182137	     -0.85595011	     -1.82965620	     -1.49096880	     -5.55096801
      0.18000000	      1.34358469	     -1.12865031	      2.44847409	     -1.12065062	      1.07715752	     -0.56525418	     -5.72326058	      2.02581845	     -3.49457624	     -8.71123897	     12.64736316	     -3.84251344	     -4.71259296	     -0.37156422	     -3.67301926	    -10.80508578	     14.75516772	     -0.85888965	     -1.83883206	     -1.48326224	     -5.53971832
      0.19000000	      1.34058835	     -1.13619303	      2.40250698	     -1.12078019	      1.07716389	     -0.56526911	     -5.71240355	      2.02469829	     -3.44692498	     -8.70647980	     12.64051455	     -3.83952121	     -4.69972417	     -0.37188277	     -3.72169030	    -10.81680915	     14.76177296	     -0.86212352	     -1.83525805	     -1.47128010	     -5.51153254
      0.20000000	      1.34206972	     -1.13835151	      2.38798696	     -1.12092131	      1.07717571	     -0.56533385	     -5.70797498	      2.02043265	     -3.44763222	     -8.70029666	     12.64040815	     -3.83938780	     -4.69367755	     -0.36712076	     -3.72054566	    -10.81803041	     14.76142681	     -0.86203053	     -1.84224056	     -1.46458100	     -5.51419792
      0.21000000	      1.34181435	     -1.13741266	      2.36674815	     -1.12109478	      1.07718905	     -0.56539798	     -5.69782268	      2.01165297	     -3.41648557	     -8.69998942	     12.62967159	     -3.83585185	     -4.67255158	     -0.35917576	     -3.74091751	    -10.84370775	     14.75841003	     -0.86409076	     -1.85360500	     -1.45856543	     -5.51027987
      0.22000000	      1.34061962	     -1.13877153	      2.35848082	     -1.12124861	      1.07719986	     -0.56548031	     -5.69169362	      2.00650889	     -3.41733198	     -8.69144590	     12.62971014	     -3.83559685	     -4.66467251	     -0.35383029	     -3.74278544	    -10.84010870	     14.75865508	     -0.86416439	     -1.86285852	     -1.44964593	     -5.50921561
      0.23000000	      1.33872338	     -1.13954028	      2.35221661	     -1.12140640	      1.07721166	     -0.56557281	     -5.68480374	      2.00046241	     -3.41704102	     -8.68311273	     12.62862960	     -3.83520495	     -4.65555617	     -0.34761330	     -3.74533890	    -10.83713168	     14.75846970	     -0.86427089	     -1.87381364	     -1.43993233	     -5.50659882
      0.24000000	      1.33596131	     -1.13984183	      2.34905549	     -1.12156976	      1.07722296	     -0.56567069	     -5.67686960	      1.99408109	     -3.41618397	     -8.67497716	     12.62665555	     -3.83473373	     -4.64539370	     -0.34138053	     -3.74866363	    -10.83302522	     14.75802875	     -0.86437346	     -1.88649893	     -1.43031361	     -5.50210171
      0.25000000	      1.30248234	     -1.13806012	      2.31263909	     -1.12173747	      1.07720281	     -0.56572488	     -5.62771617	      1.98083549	     -3.36544141	     -8.67916895	     12.59380978	     -3.82452017	     -4.60012767	     -0.33078908	     -3.81240250	    -10.83706696	     14.74580067	     -0.86927600	     -1.86226428	     -1.42473616	     -5.44529515
      0.26000000	      1.29846778	     -1.13889372	      2.31568291	     -1.12190336	      1.07721416	     -0.56581970	     -5.61839280	      1.97644423	     -3.36655859	     -8.67060734	     12.59489844	     -3.82453372	     -4.59039199	     -0.32649627	     -3.81352890	    -10.82852261	     14.74624673	     -0.86914320	     -1.87899205	     -1.41664867	     -5.44120607
      0.27000000	      1.29396542	     -1.13919316	      2.32158930	     -1.12205807	      1.07722480	     -0.56592621	     -5.60902101	      1.97126572	     -3.36777027	     -8.66323236	     12.59469341	     -3.82456294	     -4.58096998	     -0.32118383	     -3.81540510	    -10.81894497	     14.74631366	     -0.86894047	     -1.89479536	     -1.40727490	     -5.43492632
      0.28000000	      1.26939416	     -1.13623445	      2.31591812	     -1.12220492	      1.07721366	     -0.56601183	     -5.56789989	      1.96000960	     -3.37463075	     -8.67415108	     12.57856707	     -3.82498554	     -4.55710517	     -0.31000235	     -3.82055825	    -10.79864525	     14.73143236	     -0.86750268	     -1.88620672	     -1.40431839	     -5.40049029
      0.29000000	      1.26423458	     -1.13642199	      2.32353846	     -1.12234153	      1.07722309	     -0.56610415	     -5.55942333	      1.95592290	     -3.37543483	     -8.66599331	     12.57917703	     -3.82511233	     -4.54785460	     -0.30562126	     -3.82316793	    -10.78893729	     14.73172259	     -0.86744101	     -1.90286114	     -1.39712311	     -5.39560174
